<svg class="border shadow-md" viewBox="0 0 755.04 755.04" style="width: 755.04px; height: 755.04px;" xmlns="http://www.w3.org/2000/svg" preserveAspectRatio="none"><rect class="bg" id="bg" x="0" y="0" width="755.04" height="755.04" fill="#ffffff"/><path d="M 0 -83.89333333333333 L 0 -83.89&#xA;                L 86.00 -22.89&#xA;                L 151.00799999999998 -83.89 L 151.00799999999998 -83.89&#xA;                L 201.34 -41.95&#xA;                L 302.01599999999996 -83.89 L 302.01599999999996 -83.89&#xA;                L 387.02 -31.89&#xA;                L 453.02399999999994 -83.89 L 453.02399999999994 -83.89&#xA;                L 503.36 -37.89&#xA;                L 604.0319999999999 -83.89 L 604.0319999999999 -83.89&#xA;                L 654.37 -41.95&#xA;                L 755.04 -83.89 L 755.04 -83.89&#xA;                L 805.38 -41.95&#xA;                L 906.048 -83.89  V 755.04 H 0 V -83.89 Z" fill="#F95164"/><path d="M 0 0 L 0 0.00&#xA;                L 50.34 41.95&#xA;                L 151.00799999999998 0.00 L 151.00799999999998 0.00&#xA;                L 201.34 41.95&#xA;                L 302.01599999999996 0.00 L 302.01599999999996 0.00&#xA;                L 352.35 41.95&#xA;                L 453.02399999999994 0.00 L 453.02399999999994 0.00&#xA;                L 520.02 41.95&#xA;                L 604.0319999999999 0.00 L 604.0319999999999 0.00&#xA;                L 711.03 58.00&#xA;                L 755.04 0.00 L 755.04 0.00&#xA;                L 805.38 81.00&#xA;                L 906.048 0.00  V 755.04 H 0 V 0.00 Z" fill="#e04b61"/><path d="M 0 83.89333333333333 L 0 83.89&#xA;                L 50.34 125.84&#xA;                L 151.00799999999998 83.89 L 151.00799999999998 83.89&#xA;                L 201.34 158.89&#xA;                L 302.01599999999996 83.89 L 302.01599999999996 83.89&#xA;                L 352.35 144.89&#xA;                L 453.02399999999994 83.89 L 453.02399999999994 83.89&#xA;                L 503.36 125.84&#xA;                L 604.0319999999999 83.89 L 604.0319999999999 83.89&#xA;                L 681.03 125.84&#xA;                L 755.04 83.89 L 755.04 83.89&#xA;                L 850.04 150.89&#xA;                L 906.048 83.89  V 755.04 H 0 V 83.89 Z" fill="#c7455e"/><path d="M 0 167.78666666666666 L 0 167.79&#xA;                L 50.34 236.79&#xA;                L 151.00799999999998 167.79 L 151.00799999999998 167.79&#xA;                L 214.01 209.73&#xA;                L 302.01599999999996 167.79 L 302.01599999999996 167.79&#xA;                L 352.35 209.73&#xA;                L 453.02399999999994 167.79 L 453.02399999999994 167.79&#xA;                L 503.36 228.79&#xA;                L 604.0319999999999 167.79 L 604.0319999999999 167.79&#xA;                L 654.37 209.73&#xA;                L 755.04 167.79 L 755.04 167.79&#xA;                L 807.04 209.73&#xA;                L 906.048 167.79  V 755.04 H 0 V 167.79 Z" fill="#ae3f5b"/><path d="M 0 251.68 L 0 251.68&#xA;                L 73.00 315.68&#xA;                L 151.00799999999998 251.68 L 151.00799999999998 251.68&#xA;                L 232.01 293.63&#xA;                L 302.01599999999996 251.68 L 302.01599999999996 251.68&#xA;                L 352.35 293.63&#xA;                L 453.02399999999994 251.68 L 453.02399999999994 251.68&#xA;                L 503.36 294.68&#xA;                L 604.0319999999999 251.68 L 604.0319999999999 251.68&#xA;                L 654.37 308.68&#xA;                L 755.04 251.68 L 755.04 251.68&#xA;                L 822.04 297.68&#xA;                L 906.048 251.68  V 755.04 H 0 V 251.68 Z" fill="#953958"/><path d="M 0 335.5733333333333 L 0 335.57&#xA;                L 57.00 404.57&#xA;                L 151.00799999999998 335.57 L 151.00799999999998 335.57&#xA;                L 201.34 392.57&#xA;                L 302.01599999999996 335.57 L 302.01599999999996 335.57&#xA;                L 352.35 391.57&#xA;                L 453.02399999999994 335.57 L 453.02399999999994 335.57&#xA;                L 503.36 377.52&#xA;                L 604.0319999999999 335.57 L 604.0319999999999 335.57&#xA;                L 697.03 377.52&#xA;                L 755.04 335.57 L 755.04 335.57&#xA;                L 824.04 397.57&#xA;                L 906.048 335.57  V 755.04 H 0 V 335.57 Z" fill="#7c3355"/><path d="M 0 419.46666666666664 L 0 419.47&#xA;                L 50.34 461.41&#xA;                L 151.00799999999998 419.47 L 151.00799999999998 419.47&#xA;                L 201.34 461.41&#xA;                L 302.01599999999996 419.47 L 302.01599999999996 419.47&#xA;                L 375.02 493.47&#xA;                L 453.02399999999994 419.47 L 453.02399999999994 419.47&#xA;                L 555.02 461.41&#xA;                L 604.0319999999999 419.47 L 604.0319999999999 419.47&#xA;                L 654.37 461.41&#xA;                L 755.04 419.47 L 755.04 419.47&#xA;                L 805.38 461.41&#xA;                L 906.048 419.47  V 755.04 H 0 V 419.47 Z" fill="#632d52"/><path d="M 0 503.36 L 0 503.36&#xA;                L 50.34 545.31&#xA;                L 151.00799999999998 503.36 L 151.00799999999998 503.36&#xA;                L 201.34 545.31&#xA;                L 302.01599999999996 503.36 L 302.01599999999996 503.36&#xA;                L 364.02 545.31&#xA;                L 453.02399999999994 503.36 L 453.02399999999994 503.36&#xA;                L 560.02 545.31&#xA;                L 604.0319999999999 503.36 L 604.0319999999999 503.36&#xA;                L 711.03 562.36&#xA;                L 755.04 503.36 L 755.04 503.36&#xA;                L 836.04 549.36&#xA;                L 906.048 503.36  V 755.04 H 0 V 503.36 Z" fill="#4a274f"/><path d="M 0 587.2533333333333 L 0 587.25&#xA;                L 50.34 642.25&#xA;                L 151.00799999999998 587.25 L 151.00799999999998 587.25&#xA;                L 201.34 629.20&#xA;                L 302.01599999999996 587.25 L 302.01599999999996 587.25&#xA;                L 412.02 629.20&#xA;                L 453.02399999999994 587.25 L 453.02399999999994 587.25&#xA;                L 503.36 665.25&#xA;                L 604.0319999999999 587.25 L 604.0319999999999 587.25&#xA;                L 688.03 629.20&#xA;                L 755.04 587.25 L 755.04 587.25&#xA;                L 805.38 666.25&#xA;                L 906.048 587.25  V 755.04 H 0 V 587.25 Z" fill="#31214c"/><path d="M 0 671.1466666666666 L 0 671.15&#xA;                L 93.00 718.15&#xA;                L 151.00799999999998 671.15 L 151.00799999999998 671.15&#xA;                L 259.01 740.15&#xA;                L 302.01599999999996 671.15 L 302.01599999999996 671.15&#xA;                L 352.35 713.09&#xA;                L 453.02399999999994 671.15 L 453.02399999999994 671.15&#xA;                L 531.02 749.15&#xA;                L 604.0319999999999 671.15 L 604.0319999999999 671.15&#xA;                L 689.03 717.15&#xA;                L 755.04 671.15 L 755.04 671.15&#xA;                L 805.38 713.09&#xA;                L 906.048 671.15  V 755.04 H 0 V 671.15 Z" fill="#181b49"/></svg>