<?xml version="1.0" encoding="UTF-8" standalone="no"?>
<!-- Uploaded to: SVG Repo, www.svgrepo.com, Generator: SVG Repo Mixer Tools -->

<svg
   fill="#000000"
   width="617.83789"
   height="617.83789"
   viewBox="0 0 18.535137 18.535137"
   enable-background="new 0 0 24 24"
   version="1.1"
   id="svg1"
   xmlns="http://www.w3.org/2000/svg"
   xmlns:svg="http://www.w3.org/2000/svg">
  <defs
     id="defs1" />
  <path
     id="path2"
     style="fill:#ffffff;stroke:#ffffff;stroke-width:0.03"
     d="M 9.2675972,0.01499996 A 9.2525911,9.2525911 0 0 0 0.01500024,9.267539 9.2525911,9.2525911 0 0 0 9.2675972,18.520137 9.2525911,9.2525911 0 0 0 18.520137,9.267539 9.2525911,9.2525911 0 0 0 9.2675972,0.01499996 Z M 8.0245312,3.0523243 h 2.4860738 c 1.056594,-10e-8 1.864629,0.8079761 1.864629,1.8645703 v 0.6215039 h 2.486075 c 0.372915,0 0.621503,0.2485883 0.621503,0.6215039 V 8.646035 c 0,1.056594 -0.807976,1.86457 -1.86457,1.86457 H 4.9168942 c -1.056594,10e-7 -1.86457,-0.807976 -1.86457,-1.86457 V 6.1599024 c 0,-0.3729156 0.248589,-0.6215039 0.621504,-0.6215039 h 2.486133 V 4.9168946 c 0,-1.0565942 0.807976,-1.8645703 1.86457,-1.8645703 z m 0,1.2430078 c -0.372916,0 -0.621563,0.2486467 -0.621563,0.6215625 V 5.5383985 H 11.132168 V 4.9168946 c 0,-0.3729158 -0.248646,-0.6215625 -0.621563,-0.6215625 z m -4.350703,6.8368359 c 0.372916,0.186457 0.807998,0.310723 1.243066,0.310723 h 1.243067 v 0.932285 c 0,0.372915 0.248588,0.621562 0.621504,0.621562 0.372914,0 0.621503,-0.248647 0.621503,-0.621562 v -0.932285 h 3.7291998 v 0.932285 c 0,0.372915 0.248589,0.621562 0.621504,0.621562 0.372916,0 0.621562,-0.248647 0.621562,-0.621562 v -0.932285 h 1.243008 c 0.435068,0 0.870151,-0.124266 1.243067,-0.310723 v 2.486074 c 0,1.056595 -0.807976,1.864571 -1.864571,1.864571 H 5.5383982 c -1.056594,0 -1.86457,-0.807976 -1.86457,-1.864571 z" />
</svg>
