<?xml version="1.0" encoding="UTF-8" standalone="no"?>
<svg
   version="1.0"
   width="973.49115pt"
   height="973.49115pt"
   viewBox="0 0 973.49115 973.49115"
   preserveAspectRatio="xMidYMid"
   id="svg1"
   xmlns="http://www.w3.org/2000/svg"
   xmlns:svg="http://www.w3.org/2000/svg">
  <defs
     id="defs1" />
  <path
     id="path2"
     style="fill:#ffffff;stroke:#ffffff;stroke-width:0.75"
     d="M 486.74564,0.37499972 A 486.37048,486.37048 0 0 0 0.37500197,486.7456 486.37048,486.37048 0 0 0 486.74564,973.1162 486.37048,486.37048 0 0 0 973.11624,486.7456 486.37048,486.37048 0 0 0 486.74564,0.37499972 Z M 751.29202,188.26318 c 0.12741,0.12741 -81.28789,570.03228 -81.479,570.2871 -0.12741,0.0637 -47.07752,-16.43695 -104.34814,-36.75879 -57.27063,-20.25813 -104.4127,-36.88476 -104.79493,-36.88476 -0.31852,0 -26.69225,34.84753 -58.48095,77.40234 -31.85241,42.55481 -58.09795,77.40088 -58.28907,77.40088 -0.25481,0 -18.60247,-50.13564 -40.83544,-111.35596 C 280.83151,667.13367 262.3578,616.74306 261.9756,616.36083 261.5934,615.9786 224.9619,602.0913 180.5596,585.46435 136.1574,568.83739 99.7823,555.13984 99.7823,554.94872 c 0,-0.19111 146.5847,-82.81665 325.72261,-183.59766 C 604.57913,270.63378 751.22832,188.19948 751.29202,188.26318 Z m -99.95214,130.34033 c -0.19112,0 -337.6369,306.35734 -340.3125,308.96924 -1.14669,1.14668 -0.6363,2.67541 20.64111,63.83202 11.9765,34.4006 21.97858,62.81332 22.2334,63.13184 0.25482,0.25482 8.79014,-22.16999 18.98291,-49.81787 l 18.53906,-50.26319 126.96387,-163.97607 c 69.75676,-90.1423 128.30096,-165.69561 130.02099,-167.92529 1.78374,-2.16596 3.05857,-3.95068 2.93116,-3.95068 z" />
</svg>
