<?xml version="1.0" encoding="UTF-8" standalone="no"?>
<!-- Created with Inkscape (http://www.inkscape.org/) -->

<svg
   width="125.43007mm"
   height="125.43061mm"
   viewBox="0 0 125.43007 125.43061"
   version="1.1"
   id="svg1"
   xml:space="preserve"
   xmlns="http://www.w3.org/2000/svg"
   xmlns:svg="http://www.w3.org/2000/svg"><defs
     id="defs1" /><g
     id="layer1"
     transform="translate(-42.284963,-85.784704)"><path
       id="path7"
       style="fill:#ffffff;fill-opacity:1;stroke:none;stroke-width:0.264583;stroke-opacity:1"
       d="M 105,85.784703 A 62.715202,62.715202 0 0 0 42.284963,148.50026 62.715202,62.715202 0 0 0 105,211.2153 62.715202,62.715202 0 0 0 167.71504,148.50026 62.715202,62.715202 0 0 0 105,85.784703 Z m 32.70963,26.969427 c 0.44967,-0.0182 1.59353,0.40695 1.96009,0.75757 1.08799,1.003 1.22392,2.04001 0.79892,6.10299 -0.35699,3.26393 -1.54707,9.43508 -1.83606,9.43508 -0.068,0 -3.31493,-3.19605 -7.22489,-7.10603 l -7.10602,-7.10602 1.93786,-0.45889 c 3.22997,-0.76499 7.14005,-1.34314 10.40402,-1.53014 0.47599,-0.034 0.91799,-0.0683 0.98599,-0.0853 0.0234,-0.005 0.0501,-0.008 0.0801,-0.009 z m -16.87597,3.20548 c 0.102,0 3.90979,3.74031 8.49974,8.33024 l 8.31319,8.31268 -0.22118,0.64595 c -1.63198,4.64097 -4.13068,9.46912 -6.98665,13.5661 -5.91594,8.4999 -14.55221,15.58864 -23.97011,19.68562 -3.82497,1.66599 -9.723897,3.51916 -11.185884,3.51916 -1.34299,0 -2.10778,-0.61188 -6.85075,-5.38881 -5.66092,-5.71197 -5.45705,-5.25325 -4.14806,-9.80923 3.04294,-10.60785 8.36386,-19.34557 16.268774,-26.74048 5.13394,-4.79397 11.78119,-8.94222 18.36012,-11.44116 0.96899,-0.374 1.83581,-0.68007 1.92081,-0.68007 z m -3.23753,12.24163 c -3.94973,-0.15339 -7.5381,2.67991 -8.23722,6.81509 -0.88399,5.25297 3.9098,10.04726 9.16275,9.16327 5.42294,-0.918 8.38089,-6.68116 5.91592,-11.59413 -0.96899,-1.97198 -2.95808,-3.55301 -5.13406,-4.13101 -0.57161,-0.14875 -1.14314,-0.2313 -1.70739,-0.25322 z m 3.40445,4.8979 c 0.9477,-0.0275 2.09651,1.75797 1.90686,3.5326 -0.102,1.01999 -0.76502,2.32898 -1.32602,2.63498 -0.49299,0.255 -1.15566,0.0506 -1.37666,-0.44235 -0.153,-0.34 -0.10212,-0.52665 0.28887,-1.20665 0.612,-1.03699 0.61205,-1.88736 0.017,-2.75435 -0.50999,-0.748 -0.52701,-0.84961 -0.17001,-1.35961 0.18992,-0.27279 0.41833,-0.39762 0.6599,-0.40462 z m -30.063284,0.39997 c 0.27837,0 0.40142,0.0299 0.36742,0.0894 -0.017,0.085 -0.62902,0.95199 -1.32602,1.97197 -2.71998,3.89298 -4.93004,8.00707 -6.61303,12.22303 -0.476,1.18999 -0.86662,2.24406 -0.86662,2.32906 0,0.306 -0.32345,0.37412 -0.96945,0.20412 -2.549973,-0.68 -6.918513,-0.57822 -10.896493,0.25476 -1.08799,0.221 -2.17638,0.40825 -2.43138,0.40825 -0.57798,0 -1.32589,-0.59538 -1.61488,-1.27538 -0.323,-0.78198 -0.0847,-1.46161 1.07125,-3.0086 6.06895,-8.05794 13.07264,-12.24021 21.980573,-13.10721 0.5865,-0.0595 1.02025,-0.0894 1.29863,-0.0894 z m 29.114504,28.70006 c 0.102,0 -0.15335,2.5504 -0.44235,4.25039 -1.17299,7.15693 -5.54176,13.99089 -12.12071,18.93786 -2.31198,1.75099 -2.72003,1.92072 -3.63802,1.56373 -0.78199,-0.306 -1.29191,-0.98581 -1.29191,-1.7508 0,-0.255 0.18678,-1.39413 0.42478,-2.51613 0.79899,-3.90995 0.90128,-7.68394 0.25528,-10.53992 -0.17,-0.782 -0.11893,-1.10484 0.18707,-1.10484 0.34,0 4.21587,-1.59799 6.39186,-2.63499 2.73697,-1.30897 5.69505,-3.04319 8.26202,-4.84518 1.037,-0.73099 1.93798,-1.34312 1.97198,-1.36012 z m -37.892784,0.5271 c 0.051,-0.017 0.57754,0.47625 1.17254,1.07125 l 1.07125,1.07074 -0.81597,1.24126 c -0.425,0.68 -1.15589,2.02308 -1.61489,2.99207 -1.121993,2.36299 -1.105293,3.29799 0.0677,3.29799 0.697,0 3.41722,-1.22406 5.18521,-2.32906 l 1.46193,-0.91829 1.08779,1.08831 1.10536,1.10484 -0.73122,0.64596 c -2.37999,2.14198 -5.28691,4.16496 -8.38089,5.76295 -2.855983,1.49599 -6.324013,2.97501 -6.936013,2.97501 -1.12199,0 -2.02313,-0.90073 -2.02313,-2.05672 0,-0.95199 2.72016,-6.76627 4.50515,-9.65626 1.03699,-1.66599 2.32894,-3.41701 3.77393,-5.117 0.544003,-0.64599 1.020253,-1.17305 1.071253,-1.17305 z" /></g></svg>
